<mxfile host="app.diagrams.net" modified="2024-10-26T11:31:39.149Z" agent="Mozilla/5.0 (Windows NT 10.0; Win64; x64) AppleWebKit/537.36 (KHTML, like Gecko) Chrome/130.0.0.0 Safari/537.36 Edg/130.0.0.0" etag="ZxislREPXFJq3-UK_58x" version="24.2.1" type="github">
  <diagram id="R2lEEEUBdFMjLlhIrx00" name="Page-1">
    <mxGraphModel dx="1483" dy="636" grid="1" gridSize="10" guides="1" tooltips="1" connect="1" arrows="1" fold="1" page="1" pageScale="1" pageWidth="850" pageHeight="1100" math="0" shadow="0" extFonts="Permanent Marker^https://fonts.googleapis.com/css?family=Permanent+Marker">
      <root>
        <mxCell id="0" />
        <mxCell id="1" parent="0" />
        <mxCell id="HTicSf9CymgbIxNVUdW1-2" value="Title" style="ellipse;whiteSpace=wrap;html=1;" vertex="1" parent="1">
          <mxGeometry x="690" y="100" width="80" height="30" as="geometry" />
        </mxCell>
        <mxCell id="HTicSf9CymgbIxNVUdW1-3" value="Author" style="ellipse;whiteSpace=wrap;html=1;" vertex="1" parent="1">
          <mxGeometry x="425" y="30" width="90" height="30" as="geometry" />
        </mxCell>
        <mxCell id="HTicSf9CymgbIxNVUdW1-4" value="Category" style="ellipse;whiteSpace=wrap;html=1;" vertex="1" parent="1">
          <mxGeometry x="620" y="40" width="80" height="30" as="geometry" />
        </mxCell>
        <mxCell id="HTicSf9CymgbIxNVUdW1-5" value="Editor" style="ellipse;whiteSpace=wrap;html=1;" vertex="1" parent="1">
          <mxGeometry x="320" y="140" width="80" height="30" as="geometry" />
        </mxCell>
        <mxCell id="HTicSf9CymgbIxNVUdW1-6" value="ISBN" style="ellipse;whiteSpace=wrap;html=1;" vertex="1" parent="1">
          <mxGeometry x="320" y="200" width="80" height="30" as="geometry" />
        </mxCell>
        <mxCell id="HTicSf9CymgbIxNVUdW1-8" value="Db_Book" style="whiteSpace=wrap;html=1;" vertex="1" parent="1">
          <mxGeometry x="490" y="150" width="120" height="40" as="geometry" />
        </mxCell>
        <mxCell id="HTicSf9CymgbIxNVUdW1-9" value="Pages" style="ellipse;whiteSpace=wrap;html=1;" vertex="1" parent="1">
          <mxGeometry x="720" y="190" width="90" height="30" as="geometry" />
        </mxCell>
        <mxCell id="HTicSf9CymgbIxNVUdW1-10" value="Language" style="ellipse;whiteSpace=wrap;html=1;" vertex="1" parent="1">
          <mxGeometry x="540" y="20" width="80" height="30" as="geometry" />
        </mxCell>
        <mxCell id="HTicSf9CymgbIxNVUdW1-12" value="" style="endArrow=none;html=1;rounded=0;" edge="1" parent="1" source="HTicSf9CymgbIxNVUdW1-5">
          <mxGeometry width="50" height="50" relative="1" as="geometry">
            <mxPoint x="440" y="230" as="sourcePoint" />
            <mxPoint x="490" y="180" as="targetPoint" />
          </mxGeometry>
        </mxCell>
        <mxCell id="HTicSf9CymgbIxNVUdW1-13" value="" style="endArrow=none;html=1;rounded=0;exitX=1;exitY=0.5;exitDx=0;exitDy=0;" edge="1" parent="1" source="HTicSf9CymgbIxNVUdW1-6">
          <mxGeometry width="50" height="50" relative="1" as="geometry">
            <mxPoint x="440" y="240" as="sourcePoint" />
            <mxPoint x="490" y="190" as="targetPoint" />
          </mxGeometry>
        </mxCell>
        <mxCell id="HTicSf9CymgbIxNVUdW1-14" value="" style="endArrow=none;html=1;rounded=0;entryX=0.5;entryY=0;entryDx=0;entryDy=0;exitX=0.5;exitY=1;exitDx=0;exitDy=0;" edge="1" parent="1" source="HTicSf9CymgbIxNVUdW1-10" target="HTicSf9CymgbIxNVUdW1-8">
          <mxGeometry width="50" height="50" relative="1" as="geometry">
            <mxPoint x="549.5" y="60" as="sourcePoint" />
            <mxPoint x="549.5" y="145" as="targetPoint" />
          </mxGeometry>
        </mxCell>
        <mxCell id="HTicSf9CymgbIxNVUdW1-15" value="" style="endArrow=none;html=1;rounded=0;entryX=0.5;entryY=1;entryDx=0;entryDy=0;" edge="1" parent="1" target="HTicSf9CymgbIxNVUdW1-7">
          <mxGeometry width="50" height="50" relative="1" as="geometry">
            <mxPoint x="510" y="150" as="sourcePoint" />
            <mxPoint x="510" y="80" as="targetPoint" />
          </mxGeometry>
        </mxCell>
        <mxCell id="HTicSf9CymgbIxNVUdW1-16" value="" style="endArrow=none;html=1;rounded=0;entryX=0.5;entryY=1;entryDx=0;entryDy=0;" edge="1" parent="1" target="HTicSf9CymgbIxNVUdW1-4">
          <mxGeometry width="50" height="50" relative="1" as="geometry">
            <mxPoint x="580" y="150" as="sourcePoint" />
            <mxPoint x="580" y="90" as="targetPoint" />
          </mxGeometry>
        </mxCell>
        <mxCell id="HTicSf9CymgbIxNVUdW1-19" value="" style="endArrow=none;html=1;rounded=0;entryX=0.4;entryY=0.967;entryDx=0;entryDy=0;entryPerimeter=0;" edge="1" parent="1" target="HTicSf9CymgbIxNVUdW1-3">
          <mxGeometry width="50" height="50" relative="1" as="geometry">
            <mxPoint x="540" y="150" as="sourcePoint" />
            <mxPoint x="470" y="70" as="targetPoint" />
          </mxGeometry>
        </mxCell>
        <mxCell id="HTicSf9CymgbIxNVUdW1-20" value="" style="endArrow=none;html=1;rounded=0;entryX=0.5;entryY=1;entryDx=0;entryDy=0;" edge="1" parent="1" target="HTicSf9CymgbIxNVUdW1-2">
          <mxGeometry width="50" height="50" relative="1" as="geometry">
            <mxPoint x="610" y="170" as="sourcePoint" />
            <mxPoint x="660" y="120" as="targetPoint" />
          </mxGeometry>
        </mxCell>
        <mxCell id="HTicSf9CymgbIxNVUdW1-22" value="" style="endArrow=none;html=1;rounded=0;exitX=1;exitY=0.75;exitDx=0;exitDy=0;" edge="1" parent="1">
          <mxGeometry width="50" height="50" relative="1" as="geometry">
            <mxPoint x="610" y="185" as="sourcePoint" />
            <mxPoint x="720" y="200" as="targetPoint" />
          </mxGeometry>
        </mxCell>
        <mxCell id="HTicSf9CymgbIxNVUdW1-7" value="ID Book" style="ellipse;whiteSpace=wrap;html=1;" vertex="1" parent="1">
          <mxGeometry x="345" y="60" width="80" height="30" as="geometry" />
        </mxCell>
        <mxCell id="HTicSf9CymgbIxNVUdW1-25" value="" style="endArrow=none;html=1;rounded=0;" edge="1" parent="1">
          <mxGeometry width="50" height="50" relative="1" as="geometry">
            <mxPoint x="360" y="80" as="sourcePoint" />
            <mxPoint x="410" y="80" as="targetPoint" />
          </mxGeometry>
        </mxCell>
        <mxCell id="HTicSf9CymgbIxNVUdW1-26" value="" style="endArrow=none;html=1;rounded=0;" edge="1" parent="1">
          <mxGeometry width="50" height="50" relative="1" as="geometry">
            <mxPoint x="549.33" y="190" as="sourcePoint" />
            <mxPoint x="549.8511111111111" y="260" as="targetPoint" />
          </mxGeometry>
        </mxCell>
        <mxCell id="HTicSf9CymgbIxNVUdW1-27" value="Db_Admin" style="rounded=0;whiteSpace=wrap;html=1;" vertex="1" parent="1">
          <mxGeometry x="500" y="260" width="120" height="40" as="geometry" />
        </mxCell>
        <mxCell id="HTicSf9CymgbIxNVUdW1-28" value="" style="endArrow=none;html=1;rounded=0;entryX=0;entryY=0.5;entryDx=0;entryDy=0;exitX=0.5;exitY=1;exitDx=0;exitDy=0;" edge="1" parent="1" source="HTicSf9CymgbIxNVUdW1-29" target="HTicSf9CymgbIxNVUdW1-27">
          <mxGeometry width="50" height="50" relative="1" as="geometry">
            <mxPoint x="420" y="340" as="sourcePoint" />
            <mxPoint x="490" y="340" as="targetPoint" />
          </mxGeometry>
        </mxCell>
        <mxCell id="HTicSf9CymgbIxNVUdW1-29" value="Name" style="ellipse;whiteSpace=wrap;html=1;" vertex="1" parent="1">
          <mxGeometry x="335" y="280" width="90" height="30" as="geometry" />
        </mxCell>
        <mxCell id="HTicSf9CymgbIxNVUdW1-30" value="NIK" style="ellipse;whiteSpace=wrap;html=1;" vertex="1" parent="1">
          <mxGeometry x="400" y="230" width="70" height="30" as="geometry" />
        </mxCell>
        <mxCell id="HTicSf9CymgbIxNVUdW1-33" value="Address" style="ellipse;whiteSpace=wrap;html=1;" vertex="1" parent="1">
          <mxGeometry x="710" y="240" width="80" height="30" as="geometry" />
        </mxCell>
        <mxCell id="HTicSf9CymgbIxNVUdW1-34" value="Email" style="ellipse;whiteSpace=wrap;html=1;" vertex="1" parent="1">
          <mxGeometry x="700" y="290" width="80" height="30" as="geometry" />
        </mxCell>
        <mxCell id="HTicSf9CymgbIxNVUdW1-36" value="" style="endArrow=none;html=1;rounded=0;exitX=1;exitY=0.75;exitDx=0;exitDy=0;" edge="1" parent="1" source="HTicSf9CymgbIxNVUdW1-27" target="HTicSf9CymgbIxNVUdW1-34">
          <mxGeometry width="50" height="50" relative="1" as="geometry">
            <mxPoint x="620" y="409.33" as="sourcePoint" />
            <mxPoint x="730" y="530" as="targetPoint" />
          </mxGeometry>
        </mxCell>
        <mxCell id="HTicSf9CymgbIxNVUdW1-38" value="" style="endArrow=none;html=1;rounded=0;exitX=1;exitY=1;exitDx=0;exitDy=0;entryX=0;entryY=0.25;entryDx=0;entryDy=0;" edge="1" parent="1" source="HTicSf9CymgbIxNVUdW1-30" target="HTicSf9CymgbIxNVUdW1-27">
          <mxGeometry width="50" height="50" relative="1" as="geometry">
            <mxPoint x="470" y="400" as="sourcePoint" />
            <mxPoint x="460" y="285" as="targetPoint" />
          </mxGeometry>
        </mxCell>
        <mxCell id="HTicSf9CymgbIxNVUdW1-40" value="Db_User" style="rounded=0;whiteSpace=wrap;html=1;" vertex="1" parent="1">
          <mxGeometry x="490" y="400" width="120" height="40" as="geometry" />
        </mxCell>
        <mxCell id="HTicSf9CymgbIxNVUdW1-41" value="" style="endArrow=none;html=1;rounded=0;" edge="1" parent="1">
          <mxGeometry width="50" height="50" relative="1" as="geometry">
            <mxPoint x="549.33" y="400" as="sourcePoint" />
            <mxPoint x="549.6600000000001" y="300" as="targetPoint" />
          </mxGeometry>
        </mxCell>
        <mxCell id="HTicSf9CymgbIxNVUdW1-42" value="ID User" style="ellipse;whiteSpace=wrap;html=1;" vertex="1" parent="1">
          <mxGeometry x="290" y="480" width="100" height="30" as="geometry" />
        </mxCell>
        <mxCell id="HTicSf9CymgbIxNVUdW1-43" value="" style="endArrow=none;html=1;rounded=0;exitX=1;exitY=0.25;exitDx=0;exitDy=0;entryX=0.886;entryY=1.133;entryDx=0;entryDy=0;entryPerimeter=0;" edge="1" parent="1">
          <mxGeometry width="50" height="50" relative="1" as="geometry">
            <mxPoint x="463.68" y="334.6800000000001" as="sourcePoint" />
            <mxPoint x="500.00000000000017" y="290.00000000000006" as="targetPoint" />
          </mxGeometry>
        </mxCell>
        <mxCell id="HTicSf9CymgbIxNVUdW1-31" value="Gender" style="ellipse;whiteSpace=wrap;html=1;" vertex="1" parent="1">
          <mxGeometry x="400" y="330" width="90" height="30" as="geometry" />
        </mxCell>
        <mxCell id="HTicSf9CymgbIxNVUdW1-46" value="" style="endArrow=none;html=1;rounded=0;entryX=0;entryY=0.5;entryDx=0;entryDy=0;" edge="1" parent="1">
          <mxGeometry width="50" height="50" relative="1" as="geometry">
            <mxPoint x="620" y="272.5" as="sourcePoint" />
            <mxPoint x="710" y="257.5" as="targetPoint" />
          </mxGeometry>
        </mxCell>
        <mxCell id="HTicSf9CymgbIxNVUdW1-51" value="Name" style="ellipse;whiteSpace=wrap;html=1;" vertex="1" parent="1">
          <mxGeometry x="415" y="490" width="85" height="30" as="geometry" />
        </mxCell>
        <mxCell id="HTicSf9CymgbIxNVUdW1-52" value="NIK" style="ellipse;whiteSpace=wrap;html=1;" vertex="1" parent="1">
          <mxGeometry x="700" y="380" width="80" height="30" as="geometry" />
        </mxCell>
        <mxCell id="HTicSf9CymgbIxNVUdW1-53" value="Gender" style="ellipse;whiteSpace=wrap;html=1;" vertex="1" parent="1">
          <mxGeometry x="730" y="440" width="90" height="30" as="geometry" />
        </mxCell>
        <mxCell id="HTicSf9CymgbIxNVUdW1-54" value="Email" style="ellipse;whiteSpace=wrap;html=1;" vertex="1" parent="1">
          <mxGeometry x="620" y="490" width="80" height="30" as="geometry" />
        </mxCell>
        <mxCell id="HTicSf9CymgbIxNVUdW1-55" value="Address" style="ellipse;whiteSpace=wrap;html=1;" vertex="1" parent="1">
          <mxGeometry x="325" y="410" width="100" height="30" as="geometry" />
        </mxCell>
        <mxCell id="HTicSf9CymgbIxNVUdW1-56" value="" style="endArrow=none;html=1;rounded=0;" edge="1" parent="1">
          <mxGeometry width="50" height="50" relative="1" as="geometry">
            <mxPoint x="470" y="490" as="sourcePoint" />
            <mxPoint x="520" y="440" as="targetPoint" />
          </mxGeometry>
        </mxCell>
        <mxCell id="HTicSf9CymgbIxNVUdW1-57" value="" style="endArrow=none;html=1;rounded=0;" edge="1" parent="1">
          <mxGeometry width="50" height="50" relative="1" as="geometry">
            <mxPoint x="420" y="418.67" as="sourcePoint" />
            <mxPoint x="490" y="418.67" as="targetPoint" />
          </mxGeometry>
        </mxCell>
        <mxCell id="HTicSf9CymgbIxNVUdW1-59" value="" style="endArrow=none;html=1;rounded=0;exitX=0.5;exitY=0;exitDx=0;exitDy=0;" edge="1" parent="1" source="HTicSf9CymgbIxNVUdW1-42">
          <mxGeometry width="50" height="50" relative="1" as="geometry">
            <mxPoint x="440" y="480" as="sourcePoint" />
            <mxPoint x="490" y="430" as="targetPoint" />
          </mxGeometry>
        </mxCell>
        <mxCell id="HTicSf9CymgbIxNVUdW1-61" value="" style="endArrow=none;html=1;rounded=0;exitX=1;exitY=0.5;exitDx=0;exitDy=0;entryX=0;entryY=1;entryDx=0;entryDy=0;" edge="1" parent="1" source="HTicSf9CymgbIxNVUdW1-40" target="HTicSf9CymgbIxNVUdW1-52">
          <mxGeometry width="50" height="50" relative="1" as="geometry">
            <mxPoint x="600" y="450" as="sourcePoint" />
            <mxPoint x="690" y="430" as="targetPoint" />
          </mxGeometry>
        </mxCell>
        <mxCell id="HTicSf9CymgbIxNVUdW1-62" value="" style="endArrow=none;html=1;rounded=0;entryX=0;entryY=0.5;entryDx=0;entryDy=0;" edge="1" parent="1" target="HTicSf9CymgbIxNVUdW1-53">
          <mxGeometry width="50" height="50" relative="1" as="geometry">
            <mxPoint x="610" y="430" as="sourcePoint" />
            <mxPoint x="770" y="450" as="targetPoint" />
          </mxGeometry>
        </mxCell>
        <mxCell id="HTicSf9CymgbIxNVUdW1-64" value="" style="endArrow=none;html=1;rounded=0;exitX=0.363;exitY=-0.2;exitDx=0;exitDy=0;exitPerimeter=0;" edge="1" parent="1" source="HTicSf9CymgbIxNVUdW1-54">
          <mxGeometry width="50" height="50" relative="1" as="geometry">
            <mxPoint x="620" y="500" as="sourcePoint" />
            <mxPoint x="580" y="440" as="targetPoint" />
          </mxGeometry>
        </mxCell>
        <mxCell id="HTicSf9CymgbIxNVUdW1-66" value="" style="endArrow=none;html=1;rounded=0;entryX=0.5;entryY=1;entryDx=0;entryDy=0;" edge="1" parent="1" target="HTicSf9CymgbIxNVUdW1-40">
          <mxGeometry width="50" height="50" relative="1" as="geometry">
            <mxPoint x="550" y="580" as="sourcePoint" />
            <mxPoint x="559.33" y="440" as="targetPoint" />
          </mxGeometry>
        </mxCell>
        <mxCell id="HTicSf9CymgbIxNVUdW1-67" value="" style="rhombus;whiteSpace=wrap;html=1;" vertex="1" parent="1">
          <mxGeometry x="480" y="570" width="140" height="150" as="geometry" />
        </mxCell>
      </root>
    </mxGraphModel>
  </diagram>
</mxfile>
